# xmcd CD database file
#
# Track frame offsets:
#	225
#	14698
#	29139
#	46064
#	61564
#	74767
#	89985
#	106725
#	131785
#	148006
#	160231
#	176972
#	193194
#	206179
#	219717
#	240064
#
# Disc length: 3386 seconds
#
# Revision: 0
# Processed by: cddbd v1.4PL0 Copyright (c) Steve Scherf et al.
# Submitted via: CDex 1.50Beta7
#
DISCID=fb0d3710
DTITLE=Groove Juice - Groove Juice
DYEAR=1999
DGENRE=Jazz
TTITLE0=Ain`t Misbehavin
TTITLE1=Bill Bailey
TTITLE2=Black and Blue
TTITLE3=El Manisero
TTITLE4=At a Georgia Camp Meeting
TTITLE5=Hit that Jive Jack
TTITLE6=I`m gonna sit right down
TTITLE7=I can`t give you anything
TTITLE8=Is you is or is you ain`t
TTITLE9=I`ve got my fingers crossed
TTITLE10=Mambo No. 5
TTITLE11=JaDa
TTITLE12=Potato Chips
TTITLE13=Opus One
TTITLE14=Sleepy Time Down South
TTITLE15=Who wants to be a Millionaire
EXTD=YEAR: 1999
EXTT0=
EXTT1=
EXTT2=
EXTT3=
EXTT4=
EXTT5=
EXTT6=
EXTT7=
EXTT8=
EXTT9=
EXTT10=
EXTT11=
EXTT12=
EXTT13=
EXTT14=
EXTT15=
PLAYORDER=
